<svg viewBox="0 0 24 24">
  <path fill-rule="evenodd" d="M15.25,12.5 C16.7687831,12.5 18,13.7312169 18,15.25 C18,16.7687831 16.7687831,18 15.25,18 C13.7312169,18 12.5,16.7687831 12.5,15.25 C12.5,13.7312169 13.7312169,12.5 15.25,12.5 Z M8.75,12.5 C10.2687831,12.5 11.5,13.7312169 11.5,15.25 C11.5,16.7687831 10.2687831,18 8.75,18 C7.23121694,18 6,16.7687831 6,15.25 C6,13.7312169 7.23121694,12.5 8.75,12.5 Z M15.25,13.9 C14.5044156,13.9 13.9,14.5044156 13.9,15.25 C13.9,15.9955844 14.5044156,16.6 15.25,16.6 C15.9955844,16.6 16.6,15.9955844 16.6,15.25 C16.6,14.5044156 15.9955844,13.9 15.25,13.9 Z M8.75,13.9 C8.00441559,13.9 7.4,14.5044156 7.4,15.25 C7.4,15.9955844 8.00441559,16.6 8.75,16.6 C9.49558441,16.6 10.1,15.9955844 10.1,15.25 C10.1,14.5044156 9.49558441,13.9 8.75,13.9 Z M15.25,6 C16.7687831,6 18,7.23121694 18,8.75 C18,10.2687831 16.7687831,11.5 15.25,11.5 C13.7312169,11.5 12.5,10.2687831 12.5,8.75 C12.5,7.23121694 13.7312169,6 15.25,6 Z M8.75,6 C10.2687831,6 11.5,7.23121694 11.5,8.75 C11.5,10.2687831 10.2687831,11.5 8.75,11.5 C7.23121694,11.5 6,10.2687831 6,8.75 C6,7.23121694 7.23121694,6 8.75,6 Z M15.25,7.4 C14.5044156,7.4 13.9,8.00441559 13.9,8.75 C13.9,9.49558441 14.5044156,10.1 15.25,10.1 C15.9955844,10.1 16.6,9.49558441 16.6,8.75 C16.6,8.00441559 15.9955844,7.4 15.25,7.4 Z M8.75,7.4 C8.00441559,7.4 7.4,8.00441559 7.4,8.75 C7.4,9.49558441 8.00441559,10.1 8.75,10.1 C9.49558441,10.1 10.1,9.49558441 10.1,8.75 C10.1,8.00441559 9.49558441,7.4 8.75,7.4 Z" />
</svg>