<svg viewBox="-5.5 -6 24 24">
  <path d="M11.3184371,8.89722288 C10.4223753,7.9901891 10.2272193,6.6479943 10.0383952,5.35010681 C9.75848754,3.42637867 9.44286076,1.26434053 6.62917147,0.981406757 L6.62917147,0.632961468 C6.62917147,0.283408498 6.33838569,0 5.97973366,0 C5.62108164,0 5.33029586,0.283408498 5.33029586,0.632961468 L5.33029586,0.981881478 C2.53982397,1.26671414 2.22679494,3.42796107 1.94932264,5.35073977 C1.76195984,6.64910199 1.56826501,7.99161326 0.679671733,8.89912177 C0.500264539,9.08236411 0.450095468,9.35216394 0.552381923,9.58509376 C0.654668377,9.81818182 0.889602503,9.96914313 1.14953998,9.96914313 L3.87035967,9.96914313 C3.88497202,11.0912256 4.82487089,12 5.97973366,12 C7.13459644,12 8.07433295,11.0912256 8.08910766,9.96914313 L10.8505172,9.96914313 C11.1109418,9.96914313 11.3462006,9.81754886 11.4481623,9.58382783 C11.5501241,9.35042329 11.4989809,9.08014875 11.3184371,8.89722288 Z M5.98157606,10.7011894 C5.5830574,10.7011894 5.2592241,10.3885988 5.24608774,10 L5.98157606,10 L6.71706437,10 C6.70392802,10.3885988 6.38009471,10.7011894 5.98157606,10.7011894 Z M5.98157606,8.47795184 L2.72154587,8.47795184 C3.20212985,7.55700609 3.35105775,6.51581085 3.48699689,5.56643458 C3.7802771,3.51624601 4.00876112,2.53075138 5.98157606,2.53075138 C7.97564532,2.53075138 8.20634334,3.51639106 8.50228034,5.56715985 C8.63925268,6.51610096 8.78921377,7.55715115 9.27348773,8.47795184 L5.98157606,8.47795184 Z" id="path-1" />
</svg>