<svg viewBox="0 0 24 24">
  <path fill-rule="evenodd" d="M12,6 C15.3134923,6 18,8.68650819 18,12 C18,15.3134923 15.3134923,18 12,18 C8.68650819,18 6,15.3134923 6,12 C6,8.68650819 8.68650819,6 12,6 Z M12,7.4 C9.45970684,7.4 7.4,9.45970684 7.4,12 C7.4,14.5402935 9.45970665,16.6 12,16.6 C14.5402937,16.6 16.6,14.5402937 16.6,12 C16.6,9.45970665 14.5402935,7.4 12,7.4 Z M14.8811104,9.50034616 C15.1287323,9.49194729 15.3559161,9.63703035 15.4524501,9.86521239 C15.549167,10.0934711 15.4954919,10.3577106 15.3173819,10.5301449 L15.3173819,10.5301449 L11.5307954,14.3231392 C11.3068574,14.5489516 10.945322,14.5599089 10.7081196,14.3480725 L10.7081196,14.3480725 L8.71369744,12.5507413 C8.54647879,12.4101015 8.46899097,12.1896423 8.51144216,11.9753087 C8.55389336,11.7609751 8.70956386,11.5866945 8.91776638,11.5204092 C9.12598426,11.454465 9.35359248,11.5073216 9.51143964,11.6582757 L9.51143964,11.6582757 L11.0820571,13.0749407 L14.4698392,9.68134594 C14.5782044,9.56982866 14.7257466,9.50490613 14.8811104,9.50034616 Z" />
</svg>