<svg viewBox="0 0 24 24">
  <path fill-rule="evenodd" d="M12.9253731,6 C13.2238806,6 13.4626866,6.18090452 13.5223881,6.48241206 L13.5223881,6.48241206 L13.761194,7.5678392 L13.761194,7.5678392 L13.8208955,7.5678392 L14.7164179,6.96482412 C14.9552239,6.7839196 15.3134328,6.84422111 15.4925373,7.02512563 L15.4925373,7.02512563 L16.9253731,8.4120603 C17.1044776,8.65326633 17.1641791,8.95477387 16.9850746,9.1959799 L16.9850746,9.1959799 L16.3880597,10.1005025 L16.3880597,10.1005025 L16.3880597,10.160804 L17.4626866,10.4020101 C17.761194,10.4020101 17.9402985,10.7035176 18,10.9447236 L18,10.9447236 L18,12.9346734 C18,13.2361809 17.8208955,13.4773869 17.5223881,13.5376884 L17.5223881,13.5376884 L16.4477612,13.7788945 L16.4477612,13.7788945 L16.4477612,13.839196 L17.0447761,14.7437186 C17.2238806,14.9849246 17.1641791,15.3467337 16.9850746,15.5276382 L16.9850746,15.5276382 L15.5522388,16.9748744 C15.3134328,17.1557789 15.0149254,17.2160804 14.7761194,17.0351759 L14.7761194,17.0351759 L13.880597,16.4321608 L13.880597,16.4321608 L13.8208955,16.4321608 L13.5820896,17.5175879 C13.5223881,17.8190955 13.2835821,18 12.9850746,18 L12.9850746,18 L11.0149254,18 C10.7164179,18 10.4776119,17.8190955 10.4179104,17.5175879 L10.4179104,17.5175879 L10.1791045,16.4321608 L10.1791045,16.4321608 L10.119403,16.4321608 L9.2238806,17.0351759 C8.98507463,17.2160804 8.62686567,17.1557789 8.44776119,16.9748744 L8.44776119,16.9748744 L7.01492537,15.5276382 C6.8358209,15.2864322 6.7761194,14.9849246 6.95522388,14.7437186 L6.95522388,14.7437186 L7.55223881,13.839196 L7.55223881,13.839196 L7.55223881,13.7788945 L6.47761194,13.5376884 C6.17910448,13.4773869 6,13.2361809 6,12.9346734 L6,12.9346734 L6,10.9447236 C6,10.7035176 6.17910448,10.4020101 6.47761194,10.4020101 L6.47761194,10.4020101 L7.55223881,10.160804 L7.55223881,10.160804 L7.55223881,10.1005025 L6.95522388,9.1959799 C6.8358209,8.95477387 6.8358209,8.59296482 7.07462687,8.4120603 L7.07462687,8.4120603 L8.44776119,7.02512563 C8.62686567,6.7839196 8.98507463,6.7839196 9.2238806,6.90452261 L9.2238806,6.90452261 L10.119403,7.50753769 L10.119403,7.50753769 L10.1791045,7.50753769 L10.358209,6.48241206 C10.4179104,6.18090452 10.6567164,6 10.9552239,6 L10.9552239,6 Z M12.5074627,7.14572864 L11.4925373,7.14572864 L11.2537313,7.98994975 C11.1940299,8.23115578 11.0149254,8.4120603 10.8358209,8.47236181 C10.6567164,8.53266332 10.5373134,8.65326633 10.358209,8.71356784 C10.1791045,8.83417085 9.94029851,8.83417085 9.76119403,8.71356784 L9.76119403,8.71356784 L8.98507463,8.17085427 L8.20895522,8.89447236 L8.80597015,9.73869347 C8.92537313,9.91959799 8.92537313,10.160804 8.80597015,10.3417085 C8.74626866,10.4623116 8.68656716,10.6432161 8.62686567,10.8241206 C8.50746269,11.0653266 8.3880597,11.1859296 8.14925373,11.2462312 L8.14925373,11.2462312 L7.19402985,11.4271357 L7.19402985,12.5125628 L8.08955224,12.6934673 C8.26865672,12.7537688 8.44776119,12.9346734 8.50746269,13.1155779 C8.56716418,13.2964824 8.68656716,13.4170854 8.74626866,13.5979899 C8.86567164,13.7788945 8.86567164,14.0201005 8.74626866,14.201005 L8.74626866,14.201005 L8.20895522,14.9849246 L8.98507463,15.7688442 L9.82089552,15.2261307 C10,15.1055276 10.238806,15.0452261 10.4179104,15.1658291 C10.5970149,15.2261307 10.7761194,15.2864322 10.8955224,15.3467337 C11.1343284,15.4070352 11.2537313,15.5879397 11.3134328,15.8291457 L11.3134328,15.8291457 L11.4925373,16.7939698 L12.5074627,16.7939698 L12.8059701,15.8894472 C12.8656716,15.6482412 13.0447761,15.4673367 13.2238806,15.4070352 C13.4029851,15.4070352 13.5223881,15.2864322 13.7014925,15.2261307 C13.880597,15.1055276 14.119403,15.1055276 14.2985075,15.2261307 L14.2985075,15.2261307 L15.0746269,15.7688442 L15.7910448,15.0452261 L15.2537313,14.2613065 C15.1343284,14.080402 15.0746269,13.839196 15.1940299,13.6582915 C15.3134328,13.4170854 15.3731343,13.2964824 15.4328358,13.1155779 C15.4925373,12.8743719 15.6119403,12.7537688 15.8507463,12.6934673 L15.8507463,12.6934673 L16.7462687,12.5125628 L16.7462687,11.4271357 L15.8507463,11.1859296 C15.6119403,11.1256281 15.4328358,10.9447236 15.3731343,10.7638191 C15.3731343,10.5829146 15.2537313,10.4020101 15.1940299,10.281407 C15.0746269,10.1005025 15.0746269,9.85929648 15.1940299,9.67839196 L15.1940299,9.67839196 L15.7313433,8.89447236 L15.0149254,8.17085427 L14.238806,8.71356784 C14.0597015,8.83417085 13.8208955,8.89447236 13.641791,8.77386935 C13.4029851,8.65326633 13.2835821,8.59296482 13.1044776,8.53266332 C12.8656716,8.4120603 12.7462687,8.29145729 12.6865672,8.05025126 L12.6865672,8.05025126 L12.5074627,7.14572864 Z M11.9701493,9.55778894 C13.2835821,9.55778894 14.358209,10.6432161 14.358209,11.9698492 C14.358209,13.2964824 13.2835821,14.3819095 11.9701493,14.3819095 C10.6567164,14.3819095 9.58208955,13.2964824 9.58208955,11.9698492 C9.58208955,10.6432161 10.6567164,9.55778894 11.9701493,9.55778894 Z M11.9701493,10.7638191 C11.3134328,10.7638191 10.7761194,11.3065327 10.7761194,11.9698492 C10.7761194,12.6331658 11.3134328,13.1758794 11.9701493,13.1758794 C12.6268657,13.1758794 13.1641791,12.6331658 13.1641791,11.9698492 C13.1641791,11.3065327 12.6268657,10.7638191 11.9701493,10.7638191 Z" />
</svg>