<svg viewBox="0 0 24 24">
  <path d="M8,7.5 C7.72385763,7.5 7.5,7.72385763 7.5,8 L7.5,16 C7.5,16.2761424 7.72385763,16.5 8,16.5 L16,16.5 C16.2761424,16.5 16.5,16.2761424 16.5,16 L16.5,8 C16.5,7.72385763 16.2761424,7.5 16,7.5 L8,7.5 Z M8,6 L16,6 C17.1045695,6 18,6.8954305 18,8 L18,16 C18,17.1045695 17.1045695,18 16,18 L8,18 C6.8954305,18 6,17.1045695 6,16 L6,8 C6,6.8954305 6.8954305,6 8,6 Z M9.25,8.80000019 L14.75,8.80000019 L14.75,8.80000019 C15.1642136,8.80000019 15.5,9.13578663 15.5,9.55000019 L15.5,9.55000019 L15.5,9.55000019 C15.5,9.96421375 15.1642136,10.3000002 14.75,10.3000002 L9.25,10.3000002 L9.25,10.3000002 C8.83578644,10.3000002 8.5,9.96421375 8.5,9.55000019 L8.5,9.55000019 L8.5,9.55000019 C8.5,9.13578663 8.83578644,8.80000019 9.25,8.80000019 Z M9.25,11.3000002 L12.75,11.3000002 L12.75,11.3000002 C13.1642136,11.3000002 13.5,11.6357866 13.5,12.0500002 L13.5,12.0500002 L13.5,12.0500002 C13.5,12.4642138 13.1642136,12.8000002 12.75,12.8000002 L9.25,12.8000002 L9.25,12.8000002 C8.83578644,12.8000002 8.5,12.4642138 8.5,12.0500002 L8.5,12.0500002 L8.5,12.0500002 C8.5,11.6357866 8.83578644,11.3000002 9.25,11.3000002 Z M9.25,13.8000002 L13.75,13.8000002 L13.75,13.8000002 C14.1642136,13.8000002 14.5,14.1357866 14.5,14.5500002 L14.5,14.5500002 L14.5,14.5500002 C14.5,14.9642138 14.1642136,15.3000002 13.75,15.3000002 L9.25,15.3000002 L9.25,15.3000002 C8.83578644,15.3000002 8.5,14.9642138 8.5,14.5500002 L8.5,14.5500002 L8.5,14.5500002 C8.5,14.1357866 8.83578644,13.8000002 9.25,13.8000002 Z" id="i--doc" />
</svg>