<svg viewBox="0 0 24 24">
  <path d="M11.9980883,16.6281525 C12.1911465,16.4312927 12.3865118,16.230304 12.5845111,16.0248483 L13.8279854,14.7467383 L13.8361836,14.7384267 C13.9044351,14.6701752 14.0536786,14.5244991 14.3270362,14.2588955 C14.3866269,14.2009951 14.9541225,13.6500187 15.1325904,13.4765329 L15.1426088,13.4667939 C15.6800087,12.9443696 16.0410869,12.5911173 16.2503878,12.3818164 C16.736251,11.8959532 16.9957143,11.2489797 16.9957143,10.5657143 C16.9957143,9.88244882 16.736251,9.23547535 16.2428285,8.74195654 C15.7597707,8.24651269 15.1179966,7.98714286 14.4171429,7.98714286 C13.7288965,7.98714286 13.0719975,8.24922173 12.6087951,8.72461359 L12.0078564,9.34136651 L11.3989592,8.73246934 C10.9130961,8.24660618 10.2661226,7.98714286 9.58285714,7.98714286 C8.89959168,7.98714286 8.25261821,8.24660618 7.76675505,8.73246934 C6.76155784,9.73766654 6.76155784,11.3766192 7.7678179,12.3828811 L11.9980883,16.6281525 Z" id="heartstroke" />
</svg>