<svg viewBox="0 0 24 24">
  <path d="M9.50458518,15.7584496 C10.2192515,16.2339006 11.0772717,16.5109489 12,16.5109489 C12.9768924,16.5109489 13.881257,16.2004205 14.6197697,15.6726878 L13.1587681,14.2116862 C12.8124805,14.3934902 12.4182524,14.4963504 12,14.4963504 C11.6376884,14.4963504 11.2934044,14.419165 10.9826942,14.2803406 L9.50458518,15.7584496 Z M8.4166695,14.7405291 L9.86418403,13.2930145 C9.63538198,12.9158858 9.50364964,12.4733268 9.50364964,12 C9.50364964,11.5817476 9.60650978,11.1875195 9.78831378,10.8412319 L8.3273122,9.38023032 C7.7995795,10.118743 7.48905109,11.0231076 7.48905109,12 C7.48905109,13.0308139 7.83480603,13.9808724 8.4166695,14.7405291 Z M15.6726878,14.6197697 C16.2004205,13.881257 16.5109489,12.9768924 16.5109489,12 C16.5109489,11.0095737 16.1917567,10.0936987 15.6506292,9.34963184 L14.1933331,10.806928 C14.3865525,11.1613898 14.4963504,11.5678726 14.4963504,12 C14.4963504,12.4182524 14.3934902,12.8124805 14.2116862,13.1587681 L15.6726878,14.6197697 Z M15.6079515,16.7944566 C14.6038,17.5513022 13.3542995,18 12,18 C10.6457005,18 9.39619996,17.5513022 8.39204853,16.7944566 C8.24415245,17.0689327 7.95407979,17.2554745 7.62043796,17.2554745 C7.13668489,17.2554745 6.74452555,16.8633151 6.74452555,16.379562 C6.74452555,16.0459202 6.93106732,15.7558476 7.20554344,15.6079515 C6.44869784,14.6038 6,13.3542995 6,12 C6,10.6457005 6.44869784,9.39619996 7.20554344,8.39204853 C6.93106732,8.24415245 6.74452555,7.95407979 6.74452555,7.62043796 C6.74452555,7.13668489 7.13668489,6.74452555 7.62043796,6.74452555 C7.95407979,6.74452555 8.24415245,6.93106732 8.39204853,7.20554344 C9.39619996,6.44869784 10.6457005,6 12,6 C13.3542995,6 14.6038,6.44869784 15.6079515,7.20554344 C15.7558476,6.93106732 16.0459202,6.74452555 16.379562,6.74452555 C16.8633151,6.74452555 17.2554745,7.13668489 17.2554745,7.62043796 C17.2554745,7.95407979 17.0689327,8.24415245 16.7944566,8.39204853 C17.5513022,9.39619996 18,10.6457005 18,12 C18,13.3542995 17.5513022,14.6038 16.7944566,15.6079515 C17.0689327,15.7558476 17.2554745,16.0459202 17.2554745,16.379562 C17.2554745,16.8633151 16.8633151,17.2554745 16.379562,17.2554745 C16.0459202,17.2554745 15.7558476,17.0689327 15.6079515,16.7944566 Z M14.5889455,8.30547938 C13.8561566,7.79102539 12.9633432,7.48905109 12,7.48905109 C11.0231076,7.48905109 10.118743,7.7995795 9.38023032,8.3273122 L10.8412319,9.78831378 C11.1875195,9.60650978 11.5817476,9.50364964 12,9.50364964 C12.4043231,9.50364964 12.7861955,9.59977265 13.1240116,9.77041319 L14.5889455,8.30547938 Z M12,13.0072993 C12.556316,13.0072993 13.0072993,12.556316 13.0072993,12 C13.0072993,11.443684 12.556316,10.9927007 12,10.9927007 C11.443684,10.9927007 10.9927007,11.443684 10.9927007,12 C10.9927007,12.556316 11.443684,13.0072993 12,13.0072993 Z" />
</svg>