<svg viewBox="0 0 24 24">
  <path fill-rule="evenodd" d="M10.6837985,9.48549238 L10.6837985,14.818324 L10.7225686,14.877111 L11.7518048,16.6857597 L12.821123,14.818324 L12.8169312,14.7513494 L12.8169312,9.48549238 L10.6837985,9.48549238 Z M10.6837985,8.41892607 L12.8169312,8.41892607 L12.8169312,7.88564291 C12.8169312,7.2965946 12.3394132,6.81907659 11.7503649,6.81907659 C11.1613165,6.81907659 10.6837985,7.2965946 10.6837985,7.88564291 L10.6837985,8.41892607 Z M13.7466893,15.3483153 L12.677371,17.2157511 C12.5825767,17.381298 12.4451165,17.5183907 12.2793164,17.6127415 C11.7673585,17.9040781 11.1161596,17.7252292 10.824823,17.2132713 L9.81013189,15.4301822 C9.68559861,15.2525495 9.61723222,15.0399964 9.61723222,14.818324 L9.61723222,7.88564291 C9.61723222,6.70754629 10.5722682,5.75251028 11.7503649,5.75251028 C12.9284615,5.75251028 13.8834975,6.70754629 13.8834975,7.88564291 L13.8834975,14.7233191 C13.9028732,14.9387835 13.856518,15.1565126 13.7466893,15.3483153 Z" transform="rotate(45 11.753 11.753)" />
</svg>