<svg viewBox="0 0 24 24">
  <path d="M12.203925,12.3931102 L7.08873105,12.888192 L5.74242141,17.193252 C5.66205529,17.4477662 5.74108038,17.7256862 5.94333556,17.8998386 C6.14559073,18.0739909 6.43216432,18.1108706 6.67192298,17.9936017 L17.8826904,12.5653126 C18.1018899,12.4583888 18.2409436,12.2358444 18.2409436,11.9919568 C18.2409436,11.7480693 18.1018899,11.5255249 17.8826904,11.4186011 L6.67975036,5.98639827 C6.4399917,5.86912942 6.15341811,5.90600906 5.95116294,6.08016141 C5.74890776,6.25431376 5.66988267,6.53223383 5.75024879,6.78674804 L7.09655844,11.091808 L12.2019681,11.5868898 C12.4082295,11.6072877 12.5654069,11.7807756 12.5654069,11.9880432 C12.5654069,12.1953107 12.4082295,12.3687986 12.2019681,12.3891965 L12.203925,12.3931102 Z" id="Shape" />
</svg>