<svg viewBox="0 0 24 24">
  <path d="M8.80000019,12.75 L8.80000019,10.25 C8.80000019,9.83578644 9.13578663,9.5 9.55000019,9.5 C9.96421375,9.5 10.3000002,9.83578644 10.3000002,10.25 L10.3000002,12.75 C10.3000002,13.1642136 9.96421375,13.5 9.55000019,13.5 C9.13578663,13.5 8.80000019,13.1642136 8.80000019,12.75 L8.80000019,12.75 Z M11.3000002,12.75 L11.3000002,11.25 C11.3000002,10.8357864 11.6357866,10.5 12.0500002,10.5 C12.4642138,10.5 12.8000002,10.8357864 12.8000002,11.25 L12.8000002,12.75 C12.8000002,13.1642136 12.4642138,13.5 12.0500002,13.5 C11.6357866,13.5 11.3000002,13.1642136 11.3000002,12.75 Z M12.1103352,16 L11.9202907,16 L7.17448538,17.9779022 C6.79214823,18.1372482 6.3530272,17.9564783 6.19368111,17.5741411 C6.03433503,17.191804 6.21510501,16.7526829 6.59744217,16.5933368 L8.02110265,16 L8,16 C6.8954305,16 6,15.1045695 6,14 L6,9 C6,7.8954305 6.8954305,7 8,7 L16,7 C17.1045695,7 18,7.8954305 18,9 L18,14 C18,15.1014109 17.1096832,15.9948772 16.0094706,15.9999781 L17.3850806,16.573289 C17.7674178,16.7326351 17.9481878,17.1717561 17.7888417,17.5540933 C17.6294956,17.9364304 17.1903746,18.1172004 16.8080374,17.9578543 L12.1103352,16 Z M8,8.5 C7.72385763,8.5 7.5,8.72385763 7.5,9 L7.5,14 C7.5,14.2761424 7.72385763,14.5 8,14.5 L16,14.5 C16.2761424,14.5 16.5,14.2761424 16.5,14 L16.5,9 C16.5,8.72385763 16.2761424,8.5 16,8.5 L8,8.5 Z M13.8000002,12.75 L13.8000002,12.25 C13.8000002,11.8357864 14.1357866,11.5 14.5500002,11.5 C14.9642138,11.5 15.3000002,11.8357864 15.3000002,12.25 L15.3000002,12.75 C15.3000002,13.1642136 14.9642138,13.5 14.5500002,13.5 C14.1357866,13.5 13.8000002,13.1642136 13.8000002,12.75 Z M12,6 C12.5522847,6 13,6.44771525 13,7 L11,7 C11,6.44771525 11.4477153,6 12,6 Z" id="Combined-Shape" />
</svg>