<svg viewBox="0 0 24 24">
  <g transform="translate(4.000000, 5.000000)">
    <path d="M6.00088873,7 L11,7 C11,8.65623889 9.88019908,10 8.5,10 C7.11980092,10 6,8.65623889 6,7 L6.00088873,7 Z" id="Shape" opacity="0.6" />
    <path d="M13,9.95555556 C12.3155556,10.8177778 11.2755556,11.5262222 9.88444444,12.0773333 C9.65866667,12.6195556 9.12355556,13 8.50044444,13 C7.672,13 7,12.328 7,11.4995556 C7,10.6728889 7.672,10 8.50044444,10 C8.76444444,10 9.01333333,10.0684444 9.22933333,10.1893333 C11.1937778,9.40355556 12,8.37066667 12,7 L12,6 C12,3.79111111 10.2088889,2 8,2 C5.79111111,2 4,3.79111111 4,6 L4,10.0071111 L2,10.0071111 L2,9.95022222 C0.858666667,9.71911111 0,8.70933333 0,7.49955556 C0,6.264 0.897777778,5.23644444 2.07733333,5.03555556 C2.53955556,2.18044444 5.01333333,0 8,0 C10.9866667,0 13.4613333,2.18044444 13.9226667,5.03555556 C15.1022222,5.23555556 16,6.26222222 16,7.49955556 C16,8.88088889 14.88,10 13.4995556,10 L13,10 L13,9.95555556 Z" id="Shape" />
  </g>
</svg>