<svg viewBox="0 0 24 24">
  <path d="M12,16.5 C14.4852814,16.5 16.5,14.4852814 16.5,12 C16.5,9.51471863 14.4852814,7.5 12,7.5 C9.51471863,7.5 7.5,9.51471863 7.5,12 C7.5,14.4852814 9.51471863,16.5 12,16.5 Z M12,18 C8.6862915,18 6,15.3137085 6,12 C6,8.6862915 8.6862915,6 12,6 C15.3137085,6 18,8.6862915 18,12 C18,15.3137085 15.3137085,18 12,18 Z M11,12 C11.5522847,12 12,11.5522847 12,11 C12,10.4477153 11.5522847,10 11,10 C10.4477153,10 10,10.4477153 10,11 C10,11.5522847 10.4477153,12 11,12 Z M14,12 C14.5522847,12 15,11.5522847 15,11 C15,10.4477153 14.5522847,10 14,10 C13.4477153,10 13,10.4477153 13,11 C13,11.5522847 13.4477153,12 14,12 Z M12.5,15 C13.3284271,15 14,14.5522847 14,14 C14,13.4477153 13.3284271,13 12.5,13 C11.6715729,13 11,13.4477153 11,14 C11,14.5522847 11.6715729,15 12.5,15 Z" id="Combined-Shape" />
</svg>