
<svg xmlns="http://www.w3.org/2000/svg">


      <symbol id="icon--download" viewBox="0 0 24 24">
        <path d="M11.266171,12.8255386 L11.266171,6.75 L11.266171,6.75 C11.266171,6.33578644 11.6019575,6 12.016171,6 C12.4303846,6 12.766171,6.33578644 12.766171,6.75 L12.766171,12.8223304 L14.2807304,11.5457667 C14.5746377,11.2980435 15.0092606,11.3165398 15.2810586,11.5883378 L15.2810586,11.5883378 C15.5310282,11.8383074 15.5310282,12.2435883 15.2810586,12.4935579 C15.2720054,12.5026111 15.2626825,12.5113907 15.2531027,12.5198847 L12.6314501,14.8443994 L12.6314501,14.8443994 C12.4563236,14.9996771 12.2342419,15.0737331 12.0142679,15.0656298 C11.7942938,15.0737331 11.5722121,14.9996771 11.3970857,14.8443994 L11.3970857,14.8443994 L8.77543301,12.5198847 C8.7658532,12.5113907 8.75653038,12.5026111 8.74747716,12.4935579 C8.49750754,12.2435883 8.49750754,11.8383074 8.74747716,11.5883378 L8.74747716,11.5883378 C9.01927516,11.3165398 9.45389804,11.2980435 9.74780539,11.5457667 L11.266171,12.8255386 Z M6.75,16.5 L17.25,16.5 C17.6642136,16.5 18,16.8357864 18,17.25 C18,17.6642136 17.6642136,18 17.25,18 L6.75,18 C6.33578644,18 6,17.6642136 6,17.25 C6,16.8357864 6.33578644,16.5 6.75,16.5 L6.75,16.5 Z" id="Combined-Shape"></path>
      </symbol>


      <symbol id="icon--trash" viewBox="0 0 24 24">
        <path d="M12.001336,18 L9.89504279,18 C9.38549358,18 8.95742936,17.6168642 8.90115906,17.1104315 L8.16666667,10.5 L6.75,10.5 C6.33578644,10.5 6,10.1642136 6,9.75 C6,9.33578644 6.33578644,9 6.75,9 L6.75,9 L17.25,9 C17.6642136,9 18,9.33578644 18,9.75 C18,10.1642136 17.6642136,10.5 17.25,10.5 L9.67589752,10.5 L10.3425642,16.5 L12.002004,16.5 L13.6614438,16.5 L14.0746563,12.8791341 L15.5829596,12.8791341 L15.4130724,14.3803621 L15.1011805,17.1133839 C15.0435344,17.6185198 14.6160438,18 14.1076292,18 L12.001336,18 Z M9.75,6 L14.25,6 C14.6642136,6 15,6.33578644 15,6.75 L15,6.75 C15,7.16421356 14.6642136,7.5 14.25,7.5 L9.75,7.5 C9.33578644,7.5 9,7.16421356 9,6.75 L9,6.75 L9,6.75 C9,6.33578644 9.33578644,6 9.75,6 Z" id="Combined-Shape"></path>
      </symbol>


      <symbol id="icon--star" viewBox="0 0 24 24">
        <path d="M13.9010936,13.5203675 C13.8723566,13.0200376 14.032505,12.5271518 14.3498402,12.1392676 L15.3441068,10.9239587 L13.8253876,10.5251684 C13.3406654,10.3978885 12.9213916,10.0932683 12.6505538,9.67160174 L11.8019717,8.35044691 L10.9533895,9.67160174 C10.6825517,10.0932683 10.263278,10.3978885 9.77855578,10.5251684 L8.25983656,10.9239587 L9.25410317,12.1392676 C9.5714384,12.5271518 9.73158671,13.0200376 9.70284974,13.5203675 L9.61281179,15.0879883 L11.0758845,14.5179356 C11.5428463,14.3359947 12.0610971,14.3359947 12.5280589,14.5179356 L13.9911316,15.0879883 L13.9010936,13.5203675 Z M8.70670409,17.0508679 C8.44940231,17.1511196 8.15954793,17.0238054 8.05929621,16.7665037 C8.03324441,16.6996402 8.02189018,16.6279525 8.02600498,16.5563111 L8.20531781,13.4343552 C8.21250205,13.3092727 8.17246497,13.1860512 8.09313117,13.0890802 L6.1130244,10.6687623 C5.93816873,10.4550332 5.96968182,10.1400231 6.18341087,9.96516738 C6.23895134,9.91972869 6.30362179,9.88677745 6.37302833,9.86855245 L9.39759554,9.07435166 C9.5187761,9.04253167 9.62359453,8.96637662 9.69130398,8.86095999 L11.3812765,6.22984717 C11.5305115,5.99750363 11.8398421,5.93013088 12.0721856,6.0793659 C12.1325633,6.1181467 12.1838861,6.16946946 12.2226669,6.22984717 L13.9126394,8.86095999 C13.9803488,8.96637662 14.0851673,9.04253167 14.2063478,9.07435166 L17.230915,9.86855245 C17.498003,9.9386853 17.6576667,10.2120568 17.5875339,10.4791448 C17.5693089,10.5485513 17.5363576,10.6132218 17.490919,10.6687623 L15.5108122,13.0890802 C15.4314784,13.1860512 15.3914413,13.3092727 15.3986256,13.4343552 L15.5779384,16.5563111 C15.5937728,16.8319991 15.3831199,17.0683247 15.1074318,17.0841592 C15.0357905,17.088274 14.9641027,17.0769197 14.8972393,17.0508679 L11.9834935,15.9155939 C11.866753,15.8701086 11.7371903,15.8701086 11.6204499,15.9155939 L8.70670409,17.0508679 Z" id="Star"></path>
      </symbol>


      <symbol id="icon--plus" viewBox="0 0 24 24">
        <path d="M11,11 L7,11 L7,11 C6.44771525,11 6,11.4477153 6,12 C6,12.5522847 6.44771525,13 7,13 L11,13 L11,17 C11,17.5522847 11.4477153,18 12,18 C12.5522847,18 13,17.5522847 13,17 L13,13 L17,13 C17.5522847,13 18,12.5522847 18,12 C18,11.4477153 17.5522847,11 17,11 L13,11 L13,7 C13,6.44771525 12.5522847,6 12,6 C11.4477153,6 11,6.44771525 11,7 L11,7 L11,11 Z" id="Combined-Shape"></path>
      </symbol>


      <symbol id="icon--cross" viewBox="0 0 24 24">
        <path d="M13.2352814,11.7352814 L13.2352814,7.23528137 C13.2352814,6.82106781 12.8994949,6.48528137 12.4852814,6.48528137 C12.0710678,6.48528137 11.7352814,6.82106781 11.7352814,7.23528137 L11.7352814,7.23528137 L11.7352814,11.7352814 L7.23528137,11.7352814 C6.82106781,11.7352814 6.48528137,12.0710678 6.48528137,12.4852814 C6.48528137,12.8994949 6.82106781,13.2352814 7.23528137,13.2352814 L11.7352814,13.2352814 L11.7352814,17.7352814 C11.7352814,18.1494949 12.0710678,18.4852814 12.4852814,18.4852814 C12.8994949,18.4852814 13.2352814,18.1494949 13.2352814,17.7352814 L13.2352814,13.2352814 L17.7352814,13.2352814 C18.1494949,13.2352814 18.4852814,12.8994949 18.4852814,12.4852814 C18.4852814,12.0710678 18.1494949,11.7352814 17.7352814,11.7352814 L13.2352814,11.7352814 Z" id="Combined-Shape-Copy" transform="translate(12.485281, 12.485281) rotate(-315.000000) translate(-12.485281, -12.485281) "></path>
      </symbol>


      <symbol id="icon--detach" viewBox="0 0 24 24">
        <path d="M14,14 L14,17 C14,17.5522847 13.5522847,18 13,18 L7,18 C6.44771525,18 6,17.5522847 6,17 L6,11 C6,10.4477153 6.44771525,10 7,10 L7,10 L10,10 L10,7 L10,7 C10,6.44771525 10.4477153,6 11,6 L17,6 C17.5522847,6 18,6.44771525 18,7 L18,13 C18,13.5522847 17.5522847,14 17,14 L14,14 Z M14,12 L16,12 L16,8 L12,8 L12,10 L13,10 C13.5522847,10 14,10.4477153 14,11 L14,12 Z M8,12 L8,16 L12,16 L12,12 L8,12 Z" id="Combined-Shape"></path>
      </symbol>


      <symbol id="icon--reattach" viewBox="0 0 24 24">
        <path d="M14,7 L17,7 C17.5522847,7 18,7.44771525 18,8 L18,16 C18,16.5522847 17.5522847,17 17,17 L14,17 L14,7 Z M14,9 L14,15 L16,15 L16,9 L14,9 Z M7,7 L12,7 L12,17 L7,17 C6.44771525,17 6,16.5522847 6,16 L6,8 L6,8 C6,7.44771525 6.44771525,7 7,7 L7,7 Z" id="Combined-Shape"></path>
      </symbol>


      <symbol id="icon--search" viewBox="0 0 24 24">
        <path d="M14.736607,13.3223934 L17.7781746,16.363961 C18.1686989,16.7544853 18.1686989,17.3876503 17.7781746,17.7781746 C17.3876503,18.1686989 16.7544853,18.1686989 16.363961,17.7781746 L13.1168732,14.5310867 C12.4740342,14.8319303 11.7566445,15 11,15 C8.23857625,15 6,12.7614237 6,10 C6,7.23857625 8.23857625,5 11,5 C13.7614237,5 16,7.23857625 16,10 C16,11.2753186 15.5225332,12.4391188 14.736607,13.3223934 Z M11,13 C12.6568542,13 14,11.6568542 14,10 C14,8.34314575 12.6568542,7 11,7 C9.34314575,7 8,8.34314575 8,10 C8,11.6568542 9.34314575,13 11,13 Z" id="Combined-Shape"></path>
      </symbol>


      <symbol id="icon--checkmark" viewBox="0 0 24 24">
        <path d="M17.0716556,7.00053126 C16.8385775,7.00733333 16.6172914,7.10469724 16.4546451,7.27201035 L9.8732002,13.8623962 L7.51734208,11.7373553 C7.28042452,11.5108881 6.93912466,11.4316297 6.62684662,11.5305599 C6.31456858,11.62949 6.08090002,11.8908993 6.01717515,12.2126105 C5.95345027,12.5343216 6.06978816,12.8652491 6.32071573,13.076043 L9.3122816,15.7721112 C9.66824245,16.0898738 10.2102094,16.0734282 10.5463025,15.7346658 L17.7260606,8.54516264 C17.993203,8.28671323 18.0737598,7.89018755 17.9286882,7.54776637 C17.7836166,7.20534518 17.442894,6.98778595 17.0716556,7.00053126 L17.0716556,7.00053126 Z" id="Shape"></path>
      </symbol>


      <symbol id="icon--time" viewBox="0 0 24 24">
        <path d="M12,16.5 C14.4852814,16.5 16.5,14.4852814 16.5,12 C16.5,9.51471863 14.4852814,7.5 12,7.5 C9.51471863,7.5 7.5,9.51471863 7.5,12 C7.5,14.4852814 9.51471863,16.5 12,16.5 Z M12,18 C8.6862915,18 6,15.3137085 6,12 C6,8.6862915 8.6862915,6 12,6 C15.3137085,6 18,8.6862915 18,12 C18,15.3137085 15.3137085,18 12,18 Z M12.0500002,8 L12.0500002,8 L12.0500002,8 C12.4642138,8 12.8000002,8.33578644 12.8000002,8.75 L12.8000002,12.25 L12.8000002,12.25 C12.8000002,12.6642136 12.4642138,13 12.0500002,13 L12.0500002,13 L12.0500002,13 C11.6357866,13 11.3000002,12.6642136 11.3000002,12.25 L11.3000002,8.75 L11.3000002,8.75 C11.3000002,8.33578644 11.6357866,8 12.0500002,8 Z M15.3000002,12.25 L15.3000002,12.25 L15.3000002,12.25 C15.3000002,12.6642136 14.9642138,13 14.5500002,13 L12.0500002,13 L12.0500002,13 C11.6357866,13 11.3000002,12.6642136 11.3000002,12.25 L11.3000002,12.25 L11.3000002,12.25 C11.3000002,11.8357864 11.6357866,11.5 12.0500002,11.5 L14.5500002,11.5 L14.5500002,11.5 C14.9642138,11.5 15.3000002,11.8357864 15.3000002,12.25 Z" id="Combined-Shape"></path>
      </symbol>


      <symbol id="icon--show" viewBox="0 0 24 24">
        <path d="M9.19108442,13.5530255 C11.5177388,14.9401577 14.455954,14.4059897 16.1609488,12.4172187 C15.7846464,11.9773076 15.3396397,11.5983182 14.8413771,11.2958596 C12.5137971,9.88295635 9.5516958,10.4099523 7.83937666,12.4160705 C8.22427427,12.8640753 8.68033461,13.2485207 9.19108442,13.5530255 Z M6,12.4186009 L6.03751852,12.3567939 C7.3693407,10.1627846 9.71813508,8.96485394 12.111508,9.00078551 C13.3104788,9.01878559 14.5206368,9.34643 15.6197355,10.0136122 C16.5985226,10.6077621 17.4159958,11.4337266 18,12.4186009 C16.0244154,15.7322741 11.7366247,16.8170091 8.42295157,14.8414245 C7.43809797,14.2542629 6.61292295,13.4336963 6.02025505,12.4521464 L6,12.4186009 Z M12,15.1686009 C10.4812169,15.1686009 9.25,13.937384 9.25,12.4186009 C9.25,10.8998178 10.4812169,9.66860089 12,9.66860089 C13.5187831,9.66860089 14.75,10.8998178 14.75,12.4186009 C14.75,13.937384 13.5187831,15.1686009 12,15.1686009 Z M12,13.6686009 C12.6903559,13.6686009 13.25,13.1089568 13.25,12.4186009 C13.25,11.728245 12.6903559,11.1686009 12,11.1686009 C11.3096441,11.1686009 10.75,11.728245 10.75,12.4186009 C10.75,13.1089568 11.3096441,13.6686009 12,13.6686009 Z" id="Combined-Shape"></path>
      </symbol>


      <symbol id="icon--focus" viewBox="0 0 24 24">
        <path d="M9.16728799,12.4991356 C9.16728799,14.9840503 11.1814122,16.9985411 13.666188,16.9991355 C12.7128631,15.7285325 12.167288,14.1610609 12.167288,12.4991356 C12.167288,10.8372103 12.7128631,9.26973872 13.666188,7.99913573 C11.1814122,7.99973009 9.16728799,10.0142209 9.16728799,12.4991356 Z M13.667288,12.4991356 C13.667288,14.7199827 14.8738839,16.6590142 16.667288,17.6964424 C15.7847679,18.2069527 14.7601494,18.4991356 13.667288,18.4991356 C10.3535795,18.4991356 7.66728799,15.8128441 7.66728799,12.4991356 C7.66728799,9.1854271 10.3535795,6.4991356 13.667288,6.4991356 C14.3958623,6.4991356 15.3958623,6.76669999 16.667288,7.30182877 C14.667288,9.28613528 13.667288,11.0185709 13.667288,12.4991356 Z" id="Combined-Shape" transform="translate(12.167288, 12.499136) rotate(-36.000000) translate(-12.167288, -12.499136) "></path>
      </symbol>


      <symbol id="icon--chat" viewBox="0 0 24 24">
        <path d="M15.9607379,12.3980713 C16.0398982,12.3980713 16.1185638,12.4197691 16.1903029,12.4614957 L17.0932254,12.9933701 L16.9205569,12.2845751 C16.8681132,12.0664843 16.9373785,11.8344847 17.0961939,11.6970652 C17.6854437,11.1868886 18.0104958,10.5481942 18.0104958,9.89892902 C18.0104958,8.38842784 16.2803477,7.11270805 14.2335583,7.11270805 C12.1867689,7.11270805 10.4576103,8.38842784 10.4576103,9.89892902 C10.4576103,11.4088738 12.1867689,12.6845936 14.2335583,12.6845936 C14.7817436,12.6845936 15.3136021,12.5961333 15.8152808,12.4225509 C15.862777,12.4064166 15.9117574,12.3980713 15.9607379,12.3980713 L15.9607379,12.3980713 Z M17.3312012,13.9736659 L17.3316959,13.9742223 L17.3312012,13.9736659 Z M17.4346044,14.4510177 L15.9073047,13.5508368 C15.3709934,13.7144049 14.808955,13.7973017 14.2335583,13.7973017 C11.60593,13.7973017 9.46810616,12.048681 9.46810616,9.89892902 C9.46810616,7.74917706 11.60593,6 14.2335583,6 C16.8616815,6 19,7.74917706 19,9.89892902 C19,10.7929899 18.6323992,11.646437 17.9590416,12.3352033 L18.2860727,13.6821364 C18.355338,13.967546 18.285578,14.2379341 18.1010354,14.4042839 C17.9986218,14.4966387 17.8769127,14.5428161 17.7492667,14.5428161 C17.6458635,14.5428161 17.5385023,14.512773 17.4346044,14.4510177 Z M7.58112167,11.0133061 C6.60448104,11.5429552 5.98950419,12.397515 5.98950419,13.2988085 C5.98950419,13.9608698 6.31950383,14.6106913 6.91815387,15.1281005 C7.07696929,15.2660763 7.14672934,15.4980759 7.09379086,15.7156104 L6.91518536,16.4522231 L7.84531929,15.9047707 C7.96158603,15.8363392 8.0961586,15.8224303 8.22083613,15.8652696 C9.3355126,16.252492 10.6510584,16.2024201 11.6786585,15.7734712 C9.29197441,15.2477166 7.57716366,13.4228754 7.57716366,11.1913394 C7.57716366,11.1323659 7.57864791,11.072836 7.58112167,11.0133061 L7.58112167,11.0133061 Z M6.26112309,18 C6.13347705,18 6.01127328,17.9538226 5.9088596,17.8614678 C5.72382231,17.6945616 5.65406227,17.4236172 5.72382231,17.1382076 L6.05580097,15.7673513 C5.37254833,15.0702397 5,14.2056655 5,13.2988085 C5,11.6442116 6.21610065,10.1976911 8.09813761,9.6135194 C8.27525886,9.55844035 8.46375941,9.61797024 8.58942644,9.76707311 C8.71509347,9.91673235 8.7571474,10.1320414 8.69876665,10.3273216 C8.61119553,10.6205202 8.56666784,10.9114933 8.56666784,11.1913394 C8.56666784,13.222588 10.560024,14.8143168 13.1055236,14.8143168 L13.2400961,14.809866 L13.2499912,14.809866 C13.4523448,14.809866 13.6349083,14.9489545 13.7096159,15.1614818 C13.7858077,15.3773471 13.7343535,15.623812 13.5809803,15.7790347 C12.6627204,16.7103714 11.2937414,17.2444712 9.82581192,17.2444712 C9.24200445,17.2444712 8.67254479,17.1604618 8.12831749,16.9941119 L6.57578542,17.9082016 C6.47188748,17.9699569 6.36452627,18 6.26112309,18 L6.26112309,18 Z" id="Fill-1"></path>
      </symbol>


      <symbol id="icon--mark-read" viewBox="0 0 24 24">
        <path d="M7,10 L11,10 C11.5522847,10 12,10.4477153 12,11 C12,11.5522847 11.5522847,12 11,12 L7,12 C6.44771525,12 6,11.5522847 6,11 C6,10.4477153 6.44771525,10 7,10 L7,10 Z M7,6 L15,6 C15.5522847,6 16,6.44771525 16,7 L16,7 C16,7.55228475 15.5522847,8 15,8 L7,8 C6.44771525,8 6,7.55228475 6,7 L6,7 L6,7 C6,6.44771525 6.44771525,6 7,6 L7,6 Z M17.0716556,9.00053126 L17.0716556,9.00053126 C17.442894,8.98778595 17.7836166,9.20534518 17.9286882,9.54776637 C18.0737598,9.89018755 17.993203,10.2867132 17.7260606,10.5451626 L10.5463025,17.7346658 C10.2102094,18.0734282 9.66824245,18.0898738 9.3122816,17.7721112 L6.32071573,15.076043 C6.06978816,14.8652491 5.95345027,14.5343216 6.01717515,14.2126105 C6.08090002,13.8908993 6.31456858,13.62949 6.62684662,13.5305599 C6.93912466,13.4316297 7.28042452,13.5108881 7.51734208,13.7373553 L9.8732002,15.8623962 L16.4546451,9.27201035 C16.6172914,9.10469724 16.8385775,9.00733333 17.0716556,9.00053126 Z" id="Combined-Shape"></path>
      </symbol>


      <symbol id="icon--notification" viewBox="0 0 24 24">
        <path d="M14.5,6 L13,6 L13,8 L8.8,8 L8.8,8 C8.3581722,8 8,8.3581722 8,8.8 L8,15.2 C8,15.6418278 8.3581722,16 8.8,16 L15.2,16 C15.6418278,16 16,15.6418278 16,15.2 L16,11 L18,11 L18,9.5 L18,16 C18,17.1045695 17.1045695,18 16,18 L8,18 C6.8954305,18 6,17.1045695 6,16 L6,8 L6,8 C6,6.8954305 6.8954305,6 8,6 L8,6 L14.5,6 Z M16.5,9 C15.6715729,9 15,8.32842712 15,7.5 C15,6.67157288 15.6715729,6 16.5,6 C17.3284271,6 18,6.67157288 18,7.5 C18,8.32842712 17.3284271,9 16.5,9 Z" id="Combined-Shape"></path>
      </symbol>


      <symbol id="icon--user" viewBox="0 0 24 24">
        <path d="M12,10.5 C12.8284271,10.5 13.5,9.82842712 13.5,9 C13.5,8.17157288 12.8284271,7.5 12,7.5 C11.1715729,7.5 10.5,8.17157288 10.5,9 C10.5,9.82842712 11.1715729,10.5 12,10.5 Z M12,12 C10.3431458,12 9,10.6568542 9,9 C9,7.34314575 10.3431458,6 12,6 C13.6568542,6 15,7.34314575 15,9 C15,10.6568542 13.6568542,12 12,12 Z M9.5,13 L14.5,13 C15.8807119,13 17,14.1192881 17,15.5 L17,17 C17,17.5522847 16.5522847,18 16,18 L8,18 C7.44771525,18 7,17.5522847 7,17 L7,15.5 C7,14.1192881 8.11928813,13 9.5,13 Z M15.5,16.5 L15.5,15.5 C15.5,14.9477153 15.0522847,14.5 14.5,14.5 L9.5,14.5 C8.94771525,14.5 8.5,14.9477153 8.5,15.5 L8.5,16.5 L15.5,16.5 Z" id="Combined-Shape"></path>
      </symbol>


      <symbol id="icon--user-add" viewBox="0 0 24 24">
        <path d="M12,10.5 C12.8284271,10.5 13.5,9.82842712 13.5,9 C13.5,8.17157288 12.8284271,7.5 12,7.5 C11.1715729,7.5 10.5,8.17157288 10.5,9 C10.5,9.82842712 11.1715729,10.5 12,10.5 Z M18.5,6 L19.5,6 C19.7761424,6 20,6.22385763 20,6.5 C20,6.77614237 19.7761424,7 19.5,7 L18.5,7 L18.5,8 C18.5,8.27614237 18.2761424,8.5 18,8.5 C17.7238576,8.5 17.5,8.27614237 17.5,8 L17.5,7 L16.5,7 C16.2238576,7 16,6.77614237 16,6.5 C16,6.22385763 16.2238576,6 16.5,6 L17.5,6 L17.5,5 C17.5,4.72385763 17.7238576,4.5 18,4.5 C18.2761424,4.5 18.5,4.72385763 18.5,5 L18.5,6 Z M12,12 C10.3431458,12 9,10.6568542 9,9 C9,7.34314575 10.3431458,6 12,6 C13.6568542,6 15,7.34314575 15,9 C15,10.6568542 13.6568542,12 12,12 Z M9.5,13 L14.5,13 C15.8807119,13 17,14.1192881 17,15.5 L17,17 C17,17.5522847 16.5522847,18 16,18 L8,18 C7.44771525,18 7,17.5522847 7,17 L7,15.5 C7,14.1192881 8.11928813,13 9.5,13 Z M15.5,16.5 L15.5,15.5 C15.5,14.9477153 15.0522847,14.5 14.5,14.5 L9.5,14.5 C8.94771525,14.5 8.5,14.9477153 8.5,15.5 L8.5,16.5 L15.5,16.5 Z" />
      </symbol>


      <symbol id="icon--cog" viewBox="0 0 24 24">
        <path d="M17.5728727,12.9879032 L18.8112889,13.6935484 C18.8899186,13.7311827 18.9439763,13.7876343 18.9734624,13.8629032 C19.0029485,13.9381722 19.007863,14.0134407 18.9882055,14.0887097 C18.6540299,15.0860214 18.1134511,15.9704303 17.36647,16.7419355 C17.3074978,16.7983871 17.2386971,16.8360214 17.1600673,16.8548387 C17.0814376,16.8736561 17.0028083,16.8642472 16.9241786,16.8266129 L15.6857624,16.1209677 C15.1550126,16.5537633 14.5554621,16.8830645 13.8871103,17.108871 L13.8871103,18.4919355 C13.8871103,18.5672044 13.8625387,18.637769 13.8133951,18.703629 C13.7642514,18.7694891 13.7003652,18.8118278 13.6217355,18.8306452 C12.5405783,19.0564516 11.4594217,19.0564516 10.3782645,18.8306452 C10.2996348,18.8118278 10.2357486,18.7694891 10.1866049,18.703629 C10.1374613,18.637769 10.1128897,18.5672044 10.1128897,18.4919355 L10.1128897,17.108871 C9.44453792,16.8830645 8.84498739,16.5537633 8.31423761,16.1209677 L7.07582144,16.8266129 C6.9971917,16.8642472 6.9185624,16.8736561 6.83993265,16.8548387 C6.7613029,16.8360214 6.69250216,16.7983871 6.63352996,16.7419355 C5.88654893,15.9704303 5.34597014,15.0860214 5.0117945,14.0887097 C4.99213696,14.0134407 4.99705145,13.9381722 5.02653755,13.8629032 C5.05602365,13.7876343 5.11008135,13.7311827 5.1887111,13.6935484 L6.42712726,12.9879032 C6.30918287,12.3293012 6.30918287,11.6706988 6.42712726,11.0120968 L5.1887111,10.3064516 C5.11008135,10.2688173 5.05602365,10.2123657 5.02653755,10.1370968 C4.99705145,10.0618278 4.99213696,9.98655928 5.0117945,9.91129032 C5.34597014,8.91397864 5.88654893,8.02956975 6.63352996,7.25806452 C6.69250216,7.2016129 6.7613029,7.16397864 6.83993265,7.14516129 C6.9185624,7.12634394 6.9971917,7.13575283 7.07582144,7.1733871 L8.31423761,7.87903226 C8.84498739,7.4462367 9.44453792,7.11693548 10.1128897,6.89112903 L10.1128897,5.50806452 C10.1128897,5.43279556 10.1374613,5.36223104 10.1866049,5.29637097 C10.2357486,5.2305109 10.2996348,5.18817219 10.3782645,5.16935484 C11.4594217,4.94354839 12.5405783,4.94354839 13.6217355,5.16935484 C13.7003652,5.18817219 13.7642514,5.2305109 13.8133951,5.29637097 C13.8625387,5.36223104 13.8871103,5.43279556 13.8871103,5.50806452 L13.8871103,6.89112903 C14.5554621,7.11693548 15.1550126,7.4462367 15.6857624,7.87903226 L16.9241786,7.1733871 C17.0028083,7.13575283 17.0814376,7.12634394 17.1600673,7.14516129 C17.2386971,7.16397864 17.3074978,7.2016129 17.36647,7.25806452 C18.1134511,8.02956975 18.6540299,8.91397864 18.9882055,9.91129032 C19.007863,9.98655928 19.0029485,10.0618278 18.9734624,10.1370968 C18.9439763,10.2123657 18.8899186,10.2688173 18.8112889,10.3064516 L17.5728727,11.0120968 C17.6908171,11.6706988 17.6908171,12.3293012 17.5728727,12.9879032 Z M14.3588879,12 C14.3588879,11.3790323 14.1279136,10.8474464 13.6659646,10.4052419 C13.2040156,9.96303749 12.6486942,9.74193548 12,9.74193548 C11.3513058,9.74193548 10.7959844,9.96303749 10.3340354,10.4052419 C9.87208636,10.8474464 9.64111207,11.3790323 9.64111207,12 C9.64111207,12.6209677 9.87208636,13.1525536 10.3340354,13.5947581 C10.7959844,14.0369625 11.3513058,14.2580645 12,14.2580645 C12.6486942,14.2580645 13.2040156,14.0369625 13.6659646,13.5947581 C14.1279136,13.1525536 14.3588879,12.6209677 14.3588879,12 Z" />
      </symbol>


      <symbol id="icon--unhappy" viewBox="0 0 24 24">
        <path d="M12,16.5 C14.4852814,16.5 16.5,14.4852814 16.5,12 C16.5,9.51471863 14.4852814,7.5 12,7.5 C9.51471863,7.5 7.5,9.51471863 7.5,12 C7.5,14.4852814 9.51471863,16.5 12,16.5 Z M12,18 C8.6862915,18 6,15.3137085 6,12 C6,8.6862915 8.6862915,6 12,6 C15.3137085,6 18,8.6862915 18,12 C18,15.3137085 15.3137085,18 12,18 Z M11,12 C11.5522847,12 12,11.5522847 12,11 C12,10.4477153 11.5522847,10 11,10 C10.4477153,10 10,10.4477153 10,11 C10,11.5522847 10.4477153,12 11,12 Z M14,12 C14.5522847,12 15,11.5522847 15,11 C15,10.4477153 14.5522847,10 14,10 C13.4477153,10 13,10.4477153 13,11 C13,11.5522847 13.4477153,12 14,12 Z M12.5,15 C13.3284271,15 14,14.5522847 14,14 C14,13.4477153 13.3284271,13 12.5,13 C11.6715729,13 11,13.4477153 11,14 C11,14.5522847 11.6715729,15 12.5,15 Z" id="Combined-Shape"></path>
      </symbol>


      <symbol id="icon--doc" viewBox="0 0 24 24">
        <path d="M8,7.5 C7.72385763,7.5 7.5,7.72385763 7.5,8 L7.5,16 C7.5,16.2761424 7.72385763,16.5 8,16.5 L16,16.5 C16.2761424,16.5 16.5,16.2761424 16.5,16 L16.5,8 C16.5,7.72385763 16.2761424,7.5 16,7.5 L8,7.5 Z M8,6 L16,6 C17.1045695,6 18,6.8954305 18,8 L18,16 C18,17.1045695 17.1045695,18 16,18 L8,18 C6.8954305,18 6,17.1045695 6,16 L6,8 C6,6.8954305 6.8954305,6 8,6 Z M9.25,8.80000019 L14.75,8.80000019 L14.75,8.80000019 C15.1642136,8.80000019 15.5,9.13578663 15.5,9.55000019 L15.5,9.55000019 L15.5,9.55000019 C15.5,9.96421375 15.1642136,10.3000002 14.75,10.3000002 L9.25,10.3000002 L9.25,10.3000002 C8.83578644,10.3000002 8.5,9.96421375 8.5,9.55000019 L8.5,9.55000019 L8.5,9.55000019 C8.5,9.13578663 8.83578644,8.80000019 9.25,8.80000019 Z M9.25,11.3000002 L12.75,11.3000002 L12.75,11.3000002 C13.1642136,11.3000002 13.5,11.6357866 13.5,12.0500002 L13.5,12.0500002 L13.5,12.0500002 C13.5,12.4642138 13.1642136,12.8000002 12.75,12.8000002 L9.25,12.8000002 L9.25,12.8000002 C8.83578644,12.8000002 8.5,12.4642138 8.5,12.0500002 L8.5,12.0500002 L8.5,12.0500002 C8.5,11.6357866 8.83578644,11.3000002 9.25,11.3000002 Z M9.25,13.8000002 L13.75,13.8000002 L13.75,13.8000002 C14.1642136,13.8000002 14.5,14.1357866 14.5,14.5500002 L14.5,14.5500002 L14.5,14.5500002 C14.5,14.9642138 14.1642136,15.3000002 13.75,15.3000002 L9.25,15.3000002 L9.25,15.3000002 C8.83578644,15.3000002 8.5,14.9642138 8.5,14.5500002 L8.5,14.5500002 L8.5,14.5500002 C8.5,14.1357866 8.83578644,13.8000002 9.25,13.8000002 Z" id="i--doc"></path>
      </symbol>


      <symbol id="icon--sheet" viewBox="0 0 24 24">
        <path d="M8,7.5 C7.72385763,7.5 7.5,7.72385763 7.5,8 L7.5,16 C7.5,16.2761424 7.72385763,16.5 8,16.5 L16,16.5 C16.2761424,16.5 16.5,16.2761424 16.5,16 L16.5,8 C16.5,7.72385763 16.2761424,7.5 16,7.5 L8,7.5 Z M8,6 L16,6 C17.1045695,6 18,6.8954305 18,8 L18,16 C18,17.1045695 17.1045695,18 16,18 L8,18 C6.8954305,18 6,17.1045695 6,16 L6,8 C6,6.8954305 6.8954305,6 8,6 Z M7,9.5 L17,9.5 L17,11 L7,11 L7,9.5 Z M12.8000002,6 L12.8000002,18 L11.3000002,18 L11.3000002,6 L12.8000002,6 Z M7,12.8999996 L17,12.8999996 L17,14.3999996 L7,14.3999996 L7,12.8999996 Z" id="i--sheet"></path>
      </symbol>


      <symbol id="icon--heartstroke" viewBox="0 0 24 24">
        <path d="M11.9980883,16.6281525 C12.1911465,16.4312927 12.3865118,16.230304 12.5845111,16.0248483 L13.8279854,14.7467383 L13.8361836,14.7384267 C13.9044351,14.6701752 14.0536786,14.5244991 14.3270362,14.2588955 C14.3866269,14.2009951 14.9541225,13.6500187 15.1325904,13.4765329 L15.1426088,13.4667939 C15.6800087,12.9443696 16.0410869,12.5911173 16.2503878,12.3818164 C16.736251,11.8959532 16.9957143,11.2489797 16.9957143,10.5657143 C16.9957143,9.88244882 16.736251,9.23547535 16.2428285,8.74195654 C15.7597707,8.24651269 15.1179966,7.98714286 14.4171429,7.98714286 C13.7288965,7.98714286 13.0719975,8.24922173 12.6087951,8.72461359 L12.0078564,9.34136651 L11.3989592,8.73246934 C10.9130961,8.24660618 10.2661226,7.98714286 9.58285714,7.98714286 C8.89959168,7.98714286 8.25261821,8.24660618 7.76675505,8.73246934 C6.76155784,9.73766654 6.76155784,11.3766192 7.7678179,12.3828811 L11.9980883,16.6281525 Z" id="heartstroke"></path>
      </symbol>


      <symbol id="icon--slide" viewBox="0 0 24 24">
        <path d="M8.80000019,12.75 L8.80000019,10.25 C8.80000019,9.83578644 9.13578663,9.5 9.55000019,9.5 C9.96421375,9.5 10.3000002,9.83578644 10.3000002,10.25 L10.3000002,12.75 C10.3000002,13.1642136 9.96421375,13.5 9.55000019,13.5 C9.13578663,13.5 8.80000019,13.1642136 8.80000019,12.75 L8.80000019,12.75 Z M11.3000002,12.75 L11.3000002,11.25 C11.3000002,10.8357864 11.6357866,10.5 12.0500002,10.5 C12.4642138,10.5 12.8000002,10.8357864 12.8000002,11.25 L12.8000002,12.75 C12.8000002,13.1642136 12.4642138,13.5 12.0500002,13.5 C11.6357866,13.5 11.3000002,13.1642136 11.3000002,12.75 Z M12.1103352,16 L11.9202907,16 L7.17448538,17.9779022 C6.79214823,18.1372482 6.3530272,17.9564783 6.19368111,17.5741411 C6.03433503,17.191804 6.21510501,16.7526829 6.59744217,16.5933368 L8.02110265,16 L8,16 C6.8954305,16 6,15.1045695 6,14 L6,9 C6,7.8954305 6.8954305,7 8,7 L16,7 C17.1045695,7 18,7.8954305 18,9 L18,14 C18,15.1014109 17.1096832,15.9948772 16.0094706,15.9999781 L17.3850806,16.573289 C17.7674178,16.7326351 17.9481878,17.1717561 17.7888417,17.5540933 C17.6294956,17.9364304 17.1903746,18.1172004 16.8080374,17.9578543 L12.1103352,16 Z M8,8.5 C7.72385763,8.5 7.5,8.72385763 7.5,9 L7.5,14 C7.5,14.2761424 7.72385763,14.5 8,14.5 L16,14.5 C16.2761424,14.5 16.5,14.2761424 16.5,14 L16.5,9 C16.5,8.72385763 16.2761424,8.5 16,8.5 L8,8.5 Z M13.8000002,12.75 L13.8000002,12.25 C13.8000002,11.8357864 14.1357866,11.5 14.5500002,11.5 C14.9642138,11.5 15.3000002,11.8357864 15.3000002,12.25 L15.3000002,12.75 C15.3000002,13.1642136 14.9642138,13.5 14.5500002,13.5 C14.1357866,13.5 13.8000002,13.1642136 13.8000002,12.75 Z M12,6 C12.5522847,6 13,6.44771525 13,7 L11,7 C11,6.44771525 11.4477153,6 12,6 Z" id="Combined-Shape"></path>
      </symbol>


      <symbol id="icon--heartfilled" viewBox="0 0 24 24">
        <path d="M11.9416313,8.3681909 L12,8.30982223 C12.6457261,7.68065498 13.4205839,7.13714286 14.4171429,7.13714286 C15.4137018,7.13714286 16.1828571,7.46285714 16.8514286,8.14857143 C17.52,8.81714286 17.8457143,9.69142857 17.8457143,10.5657143 C17.8457143,11.44 17.52,12.3142857 16.8514286,12.9828571 C16.2893517,13.544934 14.6879209,15.0887709 14.4372244,15.3394675 L13.3155044,16.5187813 L12,17.8342857 L7.16571429,12.9828571 C5.82857143,11.6457143 5.82857143,9.46857143 7.16571429,8.13142857 C7.83428571,7.46285714 8.43932007,7.13714286 9.58285714,7.13714286 C10.7263942,7.13714286 11.2176521,7.67930442 11.8774623,8.30566719 L11.9416313,8.3681909 Z"></path>
      </symbol>


      <symbol id="icon--nudge" viewBox="0 0 24 24">
        <path d="M13.3939837,17.2650794 L14.5221975,15.3964346 C14.5326681,15.3790924 14.5409078,15.360498 14.5467213,15.3410922 L14.8898364,14.1957635 C14.9227854,14.0857787 14.8734804,13.9678318 14.772059,13.9140175 L13.1130973,13.0337698 L13.225053,12.2450927 C13.2266763,12.2336569 13.2275132,12.2218246 13.2275132,12.2095238 L13.2275132,8.77037037 C13.2275132,8.63741293 13.1197299,8.52962963 12.9867725,8.52962963 L12.4708995,8.52962963 C12.337942,8.52962963 12.2301587,8.63741293 12.2301587,8.77037037 L12.2301587,11.9759954 L11.4394733,12.2276762 C11.4182139,12.2344433 11.3979674,12.24416 11.3790006,12.2568136 L9.24216789,13.6823972 C9.15300274,13.7418836 9.11390613,13.8531551 9.14626584,13.9553407 L10.1943797,17.2650794 L13.3939837,17.2650794 Z M11.0952381,8.77037037 C11.0952381,8.01061357 11.7111427,7.39470899 12.4708995,7.39470899 L12.9867725,7.39470899 C13.7465293,7.39470899 14.3624339,8.01061357 14.3624339,8.77037037 L14.3624339,12.2095238 C14.3624339,12.2757463 14.3577546,12.3408758 14.3487088,12.4045999 L15.3040058,12.911482 C15.883557,13.2189927 16.1652995,13.8929747 15.9770194,14.5214594 L15.6339044,15.6667881 C15.6006841,15.7776785 15.5536,15.8839324 15.4937684,15.9830307 L14.0344979,18.4 L9.36331333,18.4 L8.06430089,14.2979727 C7.8793883,13.7140549 8.10279748,13.078218 8.61231263,12.738296 L10.7491453,11.3127123 C10.8577367,11.2402658 10.9743284,11.1847067 11.0952381,11.1462203 L11.0952381,8.77037037 Z M15.6103579,12.1681784 C15.3759119,12.4170242 14.9841265,12.4286976 14.7352807,12.1942516 C14.4864349,11.9598056 14.4747615,11.5680202 14.7092075,11.3191744 C15.4411051,10.5423231 15.6349206,10.1929951 15.6349206,9.45820106 C15.6349206,7.90069962 14.3723163,6.63809524 12.8148148,6.63809524 C11.2573134,6.63809524 9.99470899,7.90069962 9.99470899,9.45820106 C9.99470899,9.883004 10.0409887,10.125127 10.1860774,10.4548043 C10.3237944,10.7677311 10.1817587,11.1330501 9.86883192,11.270767 C9.5559051,11.408484 9.19058613,11.2664484 9.05286917,10.9535215 C8.83522972,10.4589912 8.75661376,10.0476933 8.75661376,9.45820106 C8.75661376,7.2169185 10.5735323,5.4 12.8148148,5.4 C15.0560974,5.4 16.8730159,7.2169185 16.8730159,9.45820106 C16.8730159,10.5799822 16.5383322,11.1832072 15.6103579,12.1681784 Z"></path>
      </symbol>


      <symbol id="icon--lifeboat" viewBox="0 0 24 24">
        <path d="M9.50458518,15.7584496 C10.2192515,16.2339006 11.0772717,16.5109489 12,16.5109489 C12.9768924,16.5109489 13.881257,16.2004205 14.6197697,15.6726878 L13.1587681,14.2116862 C12.8124805,14.3934902 12.4182524,14.4963504 12,14.4963504 C11.6376884,14.4963504 11.2934044,14.419165 10.9826942,14.2803406 L9.50458518,15.7584496 Z M8.4166695,14.7405291 L9.86418403,13.2930145 C9.63538198,12.9158858 9.50364964,12.4733268 9.50364964,12 C9.50364964,11.5817476 9.60650978,11.1875195 9.78831378,10.8412319 L8.3273122,9.38023032 C7.7995795,10.118743 7.48905109,11.0231076 7.48905109,12 C7.48905109,13.0308139 7.83480603,13.9808724 8.4166695,14.7405291 Z M15.6726878,14.6197697 C16.2004205,13.881257 16.5109489,12.9768924 16.5109489,12 C16.5109489,11.0095737 16.1917567,10.0936987 15.6506292,9.34963184 L14.1933331,10.806928 C14.3865525,11.1613898 14.4963504,11.5678726 14.4963504,12 C14.4963504,12.4182524 14.3934902,12.8124805 14.2116862,13.1587681 L15.6726878,14.6197697 Z M15.6079515,16.7944566 C14.6038,17.5513022 13.3542995,18 12,18 C10.6457005,18 9.39619996,17.5513022 8.39204853,16.7944566 C8.24415245,17.0689327 7.95407979,17.2554745 7.62043796,17.2554745 C7.13668489,17.2554745 6.74452555,16.8633151 6.74452555,16.379562 C6.74452555,16.0459202 6.93106732,15.7558476 7.20554344,15.6079515 C6.44869784,14.6038 6,13.3542995 6,12 C6,10.6457005 6.44869784,9.39619996 7.20554344,8.39204853 C6.93106732,8.24415245 6.74452555,7.95407979 6.74452555,7.62043796 C6.74452555,7.13668489 7.13668489,6.74452555 7.62043796,6.74452555 C7.95407979,6.74452555 8.24415245,6.93106732 8.39204853,7.20554344 C9.39619996,6.44869784 10.6457005,6 12,6 C13.3542995,6 14.6038,6.44869784 15.6079515,7.20554344 C15.7558476,6.93106732 16.0459202,6.74452555 16.379562,6.74452555 C16.8633151,6.74452555 17.2554745,7.13668489 17.2554745,7.62043796 C17.2554745,7.95407979 17.0689327,8.24415245 16.7944566,8.39204853 C17.5513022,9.39619996 18,10.6457005 18,12 C18,13.3542995 17.5513022,14.6038 16.7944566,15.6079515 C17.0689327,15.7558476 17.2554745,16.0459202 17.2554745,16.379562 C17.2554745,16.8633151 16.8633151,17.2554745 16.379562,17.2554745 C16.0459202,17.2554745 15.7558476,17.0689327 15.6079515,16.7944566 Z M14.5889455,8.30547938 C13.8561566,7.79102539 12.9633432,7.48905109 12,7.48905109 C11.0231076,7.48905109 10.118743,7.7995795 9.38023032,8.3273122 L10.8412319,9.78831378 C11.1875195,9.60650978 11.5817476,9.50364964 12,9.50364964 C12.4043231,9.50364964 12.7861955,9.59977265 13.1240116,9.77041319 L14.5889455,8.30547938 Z M12,13.0072993 C12.556316,13.0072993 13.0072993,12.556316 13.0072993,12 C13.0072993,11.443684 12.556316,10.9927007 12,10.9927007 C11.443684,10.9927007 10.9927007,11.443684 10.9927007,12 C10.9927007,12.556316 11.443684,13.0072993 12,13.0072993 Z"></path>
      </symbol>


      <symbol id="icon--update" viewBox="0 0 24 24">
        <path d="M16.2937831,16.7150468 C16.9413808,16.968478 17.71612,17.04 17.71612,17.04 C17.71612,17.04 16.9426009,17.1094365 16.3200368,17.3419518 C15.9432584,18.0027895 15.844468,19 15.844468,19 C15.844468,19 15.7466338,17.9795488 15.3943528,17.3635527 C14.7727217,17.1112584 14.0534253,17.04 14.0534253,17.04 C14.0534253,17.04 14.7721836,16.9710902 15.3673897,16.7406914 C15.7454138,16.0798731 15.844468,15.08 15.844468,15.08 C15.844468,15.08 15.942154,16.0989058 16.2937831,16.7150468 Z M16.0152284,7.33578116 C16.9403679,7.69782575 18.0471382,7.8 18.0471382,7.8 C18.0471382,7.8 16.942111,7.89919493 16.0527336,8.2313597 C15.5144788,9.17541359 15.3733497,10.6 15.3733497,10.6 C15.3733497,10.6 15.2335866,9.14221262 14.7303279,8.26221809 C13.8422835,7.90179767 12.8147172,7.8 12.8147172,7.8 C12.8147172,7.8 13.8415149,7.70155738 14.6918093,7.37241623 C15.2318437,6.42839014 15.3733497,5 15.3733497,5 C15.3733497,5 15.5129011,6.45557971 16.0152284,7.33578116 Z M12.3111117,12.4715623 C14.1613908,13.1956515 16.3749314,13.4 16.3749314,13.4 C16.3749314,13.4 14.1648769,13.5983899 12.3861222,14.2627194 C11.3096126,16.1508272 11.0273542,19 11.0273542,19 C11.0273542,19 10.7478281,16.0844252 9.74131068,14.3244362 C7.96522188,13.6035953 5.91008931,13.4 5.91008931,13.4 C5.91008931,13.4 7.96368462,13.2031148 9.6642734,12.5448325 C10.7443422,10.6567803 11.0273542,7.8 11.0273542,7.8 C11.0273542,7.8 11.3064571,10.7111594 12.3111117,12.4715623 Z" id="shape"></path>
      </symbol>

      <symbol id="icon--bell" viewBox="-5.5 -6 24 24">
        <path d="M11.3184371,8.89722288 C10.4223753,7.9901891 10.2272193,6.6479943 10.0383952,5.35010681 C9.75848754,3.42637867 9.44286076,1.26434053 6.62917147,0.981406757 L6.62917147,0.632961468 C6.62917147,0.283408498 6.33838569,0 5.97973366,0 C5.62108164,0 5.33029586,0.283408498 5.33029586,0.632961468 L5.33029586,0.981881478 C2.53982397,1.26671414 2.22679494,3.42796107 1.94932264,5.35073977 C1.76195984,6.64910199 1.56826501,7.99161326 0.679671733,8.89912177 C0.500264539,9.08236411 0.450095468,9.35216394 0.552381923,9.58509376 C0.654668377,9.81818182 0.889602503,9.96914313 1.14953998,9.96914313 L3.87035967,9.96914313 C3.88497202,11.0912256 4.82487089,12 5.97973366,12 C7.13459644,12 8.07433295,11.0912256 8.08910766,9.96914313 L10.8505172,9.96914313 C11.1109418,9.96914313 11.3462006,9.81754886 11.4481623,9.58382783 C11.5501241,9.35042329 11.4989809,9.08014875 11.3184371,8.89722288 Z M5.98157606,10.7011894 C5.5830574,10.7011894 5.2592241,10.3885988 5.24608774,10 L5.98157606,10 L6.71706437,10 C6.70392802,10.3885988 6.38009471,10.7011894 5.98157606,10.7011894 Z M5.98157606,8.47795184 L2.72154587,8.47795184 C3.20212985,7.55700609 3.35105775,6.51581085 3.48699689,5.56643458 C3.7802771,3.51624601 4.00876112,2.53075138 5.98157606,2.53075138 C7.97564532,2.53075138 8.20634334,3.51639106 8.50228034,5.56715985 C8.63925268,6.51610096 8.78921377,7.55715115 9.27348773,8.47795184 L5.98157606,8.47795184 Z" id="path-1"></path>
      </symbol>

      <symbol id="icon--bell-off" viewBox="-5.5 -6 24 24">
        <path d="M0.858757289,9.90219132 C0.724104816,9.83647039 0.61409812,9.72573123 0.552381923,9.58509376 C0.450095468,9.35216394 0.500264539,9.08236411 0.679671733,8.89912177 C1.56826501,7.99161326 1.76195984,6.64910199 1.94932264,5.35073977 C2.22679494,3.42796107 2.53982397,1.26671414 5.33029586,0.981881478 L5.33029586,0.632961468 C5.33029586,0.283408498 5.62108164,0 5.97973366,0 C6.33838569,0 6.62917147,0.283408498 6.62917147,0.632961468 L6.62917147,0.981406757 C7.6931019,1.08839151 8.39986026,1.46404992 8.88257164,1.99390527 L9.78461068,1.10485396 C10.1787891,0.71635102 10.812582,0.718648898 11.203933,1.10999985 C11.2056297,1.11169662 11.2073203,1.11339953 11.2090048,1.11510856 C11.593886,1.50561239 11.5893281,2.13418623 11.1988242,2.51906752 L9.78682912,3.91073248 C9.89772193,4.3837375 9.96915152,4.87421409 10.0383952,5.35010681 C10.2272193,6.6479943 10.4223753,7.9901891 11.3184371,8.89722288 C11.4989809,9.08014875 11.5501241,9.35042329 11.4481623,9.58382783 C11.3462006,9.81754886 11.1109418,9.96914313 10.8505172,9.96914313 L8.08910766,9.96914313 C8.07433295,11.0912256 7.13459644,12 5.97973366,12 C4.82487089,12 3.88497202,11.0912256 3.87035967,9.96914313 L3.63991409,9.96914313 L1.92642905,11.6579571 C1.53225067,12.04646 0.898457728,12.0441622 0.507106778,11.6528112 C0.505410009,11.6511144 0.503719397,11.6494115 0.502034975,11.6477025 C0.117153687,11.2571987 0.121711659,10.6286248 0.512215491,10.2437435 L0.858757289,9.90219132 Z M5.98157606,10.7011894 C6.38009471,10.7011894 6.70392802,10.3885988 6.71706437,10 L5.98157606,10 L5.24608774,10 C5.2592241,10.3885988 5.5830574,10.7011894 5.98157606,10.7011894 Z M2.99826864,7.84304795 C2.99826864,7.84304795 7.74093226,3.10510642 7.74093226,3.10510642 C7.39046713,2.71997426 6.8552874,2.53075138 5.98157606,2.53075138 C4.00876112,2.53075138 3.7802771,3.51624601 3.48699689,5.56643458 C3.38152273,6.3030485 3.26822922,7.09493829 2.99826864,7.84304795 Z M5.98157606,8.47795184 L9.27348773,8.47795184 C8.78921377,7.55715115 8.44536534,5.24168509 8.44536534,5.24168509 C8.44536534,5.24168509 5.21212769,8.47795184 5.21212769,8.47795184 C5.21212769,8.47795184 5.46861048,8.47795184 5.98157606,8.47795184 Z" id="path-1"></path>
      </symbol>

      <symbol id="icon--arrow-left" viewBox="-24 0 24 24">
        <path transform="rotate(90)" d="M11.0098858,14.6063771 L11.0098858,6.56488396 C11.0098858,6.01663353 11.4543306,5.57218876 12.002581,5.57218876 C12.5508314,5.57218876 12.9952762,6.01663353 12.9952762,6.56488396 L12.9952762,14.6021416 L14.9998588,12.9125743 C15.3888602,12.5845946 15.964199,12.6090367 16.3239819,12.9688271 C16.4891502,13.1339421 16.5788221,13.3599223 16.5718059,13.5933625 C16.5647897,13.8268026 16.4617078,14.0469895 16.2869213,14.2018869 L12.8169882,17.2785803 C12.5925809,17.4777938 12.299927,17.5826788 12.0000662,17.5713592 C11.7002054,17.5826788 11.4075515,17.4777938 11.1831442,17.2785803 L7.71307874,14.2018869 C7.53829223,14.0469895 7.43521035,13.8268026 7.42819411,13.5933625 C7.42117788,13.3599223 7.51084985,13.1339421 7.67601812,12.9688271 C8.035801,12.6090367 8.61113978,12.5845946 9.0001412,12.9125743 L11.0098858,14.6063771 Z" id="path-1"></path>
      </symbol>

      <symbol id="icon--arrow-right" viewBox="0 -24 24 24">
        <path transform="rotate(-90)" d="M11.0098858,14.6063771 L11.0098858,6.56488396 C11.0098858,6.01663353 11.4543306,5.57218876 12.002581,5.57218876 C12.5508314,5.57218876 12.9952762,6.01663353 12.9952762,6.56488396 L12.9952762,14.6021416 L14.9998588,12.9125743 C15.3888602,12.5845946 15.964199,12.6090367 16.3239819,12.9688271 C16.4891502,13.1339421 16.5788221,13.3599223 16.5718059,13.5933625 C16.5647897,13.8268026 16.4617078,14.0469895 16.2869213,14.2018869 L12.8169882,17.2785803 C12.5925809,17.4777938 12.299927,17.5826788 12.0000662,17.5713592 C11.7002054,17.5826788 11.4075515,17.4777938 11.1831442,17.2785803 L7.71307874,14.2018869 C7.53829223,14.0469895 7.43521035,13.8268026 7.42819411,13.5933625 C7.42117788,13.3599223 7.51084985,13.1339421 7.67601812,12.9688271 C8.035801,12.6090367 8.61113978,12.5845946 9.0001412,12.9125743 L11.0098858,14.6063771 Z" id="path-1"></path>
      </symbol>


      <symbol id="icon--loading" viewBox="0 0 12 12">
        <path d="M8.67217695,11.9475489 C8.5511682,12.0070609 8.41166756,12.0156613 8.28436921,11.971458 C8.15707086,11.9272546 8.05240454,11.8338691 7.99339987,11.7118489 L7.07193321,9.80684891 C6.99242147,9.64250674 7.00590478,9.44787791 7.10730409,9.29627722 C7.20870341,9.14467653 7.38261376,9.05913573 7.56352481,9.07187722 C7.74443586,9.0846187 7.9048629,9.19370673 7.98437463,9.35804891 L8.9058413,11.2631489 C8.9648712,11.3851478 8.97341556,11.5257943 8.92959458,11.6541454 C8.8857736,11.7824965 8.79317716,11.8880375 8.67217695,11.9475489 Z M3.34133709,11.9475489 C3.22033688,11.8880375 3.12774044,11.7824965 3.08391946,11.6541454 C3.04009848,11.5257943 3.04864284,11.3851478 3.10767274,11.2631489 L4.0291394,9.35814891 C4.15371026,9.10726622 4.45538591,9.00427564 4.7054988,9.12724314 C4.95561169,9.25021065 5.06091104,9.55328967 4.94158083,9.80674891 L4.02011417,11.7118489 C3.9611095,11.8338691 3.85644318,11.9272546 3.72914483,11.971458 C3.60184648,12.0156613 3.46234584,12.0070609 3.34133709,11.9475489 Z M0.00279324954,7.50054891 C-0.0113083098,7.36553733 0.0283683236,7.23040811 0.113092312,7.12489642 C0.1978163,7.01938473 0.320645346,6.95213622 0.454550934,6.93794891 L2.54523194,6.71644891 C2.8240353,6.68690167 3.07380606,6.89083597 3.10311053,7.17194891 C3.13241501,7.45306185 2.93015621,7.70490167 2.65135285,7.73444891 L0.56067184,7.95594891 C0.426785539,7.97013906 0.292792228,7.93012075 0.188169452,7.84469773 C0.0835466759,7.75927471 0.0168647647,7.63544453 0.00279324954,7.50044891 L0.00279324954,7.50054891 Z M1.22367955,2.35834891 C1.30841011,2.25284861 1.4312398,2.18561218 1.56514168,2.17143404 C1.69904356,2.15725591 1.83304647,2.19729774 1.93766497,2.28274891 L3.57133184,3.61664891 C3.7139959,3.73115825 3.7847805,3.91402627 3.75676378,4.09570189 C3.72874706,4.27737751 3.60623464,4.42994072 3.43582227,4.49536642 C3.26540989,4.56079212 3.07328663,4.52902565 2.93252366,4.41214891 L1.29875761,3.07814891 C1.08093152,2.90025088 1.04736352,2.57799679 1.22377873,2.35834891 L1.22367955,2.35834891 Z M6.00675702,0.000648908558 C6.28709407,0.000648908558 6.51435215,0.229789574 6.51435215,0.512448909 L6.51435215,2.63204891 C6.51435215,2.91470824 6.28709407,3.14384891 6.00675702,3.14384891 C5.72641997,3.14384891 5.49916189,2.91470824 5.49916189,2.63204891 L5.49916189,0.512448909 C5.49916189,0.229789574 5.72641997,0.000648908558 6.00675702,0.000648908558 Z M10.7897353,2.35834891 C10.8744844,2.46383406 10.9141973,2.59894704 10.9001356,2.73395814 C10.886074,2.86896925 10.81939,2.99281645 10.7147564,3.07824891 L9.08099038,4.41214891 C8.94022741,4.52902565 8.74810414,4.56079212 8.57769177,4.49536642 C8.4072794,4.42994072 8.28476698,4.27737751 8.25675026,4.09570189 C8.22873354,3.91402627 8.29951813,3.73115825 8.4421822,3.61664891 L10.0758491,2.28264891 C10.2937185,2.10479567 10.6133283,2.13868687 10.7897353,2.35834891 Z M11.9905876,7.63604891 C11.9371237,7.91351428 11.6707044,8.09474748 11.3955171,8.04084891 L9.33191177,7.63634891 C9.15182965,7.60360293 9.00316681,7.4756616 8.9428113,7.30148354 C8.88245579,7.12730549 8.91975105,6.93385467 9.04042549,6.79515788 C9.16109993,6.6564611 9.34647234,6.59398955 9.52560722,6.63164891 L11.5892125,7.03614891 C11.864358,7.09010298 12.0440477,7.35871428 11.9905876,7.63614891 L11.9905876,7.63604891 Z" />
      </symbol>

      <symbol id="icon--extension" viewBox="0 0 24 24">
        <path d="M16.5714286,10.7142857 L15.7142857,10.7142857 L15.7142857,8.42857143 C15.7142857,7.79738886 15.2026111,7.28571429 14.5714286,7.28571429 L12.2857143,7.28571429 L12.2857143,6.42857143 C12.2857143,5.63959321 11.6461211,5 10.8571429,5 C10.0681646,5 9.42857143,5.63959321 9.42857143,6.42857143 L9.42857143,7.28571429 L7.14285714,7.28571429 C6.51167457,7.28571429 6,7.79738886 6,8.42857143 L6,10.7142857 L6.85714286,10.7142857 C7.64612107,10.7142857 8.28571429,11.3538789 8.28571429,12.1428571 C8.28571429,12.9318354 7.64612107,13.5714286 6.85714286,13.5714286 L6,13.5714286 L6,15.8571429 C6,16.4883254 6.51167457,17 7.14285714,17 L9.42857143,17 L9.42857143,16.1428571 C9.42857143,15.3538789 10.0681646,14.7142857 10.8571429,14.7142857 C11.6461211,14.7142857 12.2857143,15.3538789 12.2857143,16.1428571 L12.2857143,17 L14.5714286,17 C15.2026111,17 15.7142857,16.4883254 15.7142857,15.8571429 L15.7142857,13.5714286 L16.5714286,13.5714286 C17.3604068,13.5714286 18,12.9318354 18,12.1428571 C18,11.3538789 17.3604068,10.7142857 16.5714286,10.7142857 Z" />
      </symbol>


      <symbol id="icon--support" viewBox="0 0 24 24">
        <g transform="translate(4.000000, 5.000000)">
          <path d="M6.00088873,7 L11,7 C11,8.65623889 9.88019908,10 8.5,10 C7.11980092,10 6,8.65623889 6,7 L6.00088873,7 Z" id="Shape" opacity="0.6"></path>
          <path d="M13,9.95555556 C12.3155556,10.8177778 11.2755556,11.5262222 9.88444444,12.0773333 C9.65866667,12.6195556 9.12355556,13 8.50044444,13 C7.672,13 7,12.328 7,11.4995556 C7,10.6728889 7.672,10 8.50044444,10 C8.76444444,10 9.01333333,10.0684444 9.22933333,10.1893333 C11.1937778,9.40355556 12,8.37066667 12,7 L12,6 C12,3.79111111 10.2088889,2 8,2 C5.79111111,2 4,3.79111111 4,6 L4,10.0071111 L2,10.0071111 L2,9.95022222 C0.858666667,9.71911111 0,8.70933333 0,7.49955556 C0,6.264 0.897777778,5.23644444 2.07733333,5.03555556 C2.53955556,2.18044444 5.01333333,0 8,0 C10.9866667,0 13.4613333,2.18044444 13.9226667,5.03555556 C15.1022222,5.23555556 16,6.26222222 16,7.49955556 C16,8.88088889 14.88,10 13.4995556,10 L13,10 L13,9.95555556 Z" id="Shape"></path>
        </g>
      </symbol>


      <symbol id="icon--text" viewBox="0 0 24 24">
        <path d="M6.375,6 L6,9 L6.375,9 C6.375,7.95 7.2,7.125 8.25,7.125 L10.875,7.125 L10.875,16.6875 C10.875,17.2125 10.4625,17.625 9.9375,17.625 L9,17.625 L9,18 L15,18 L15,17.625 L14.0625,17.625 C13.5375,17.625 13.125,17.2125 13.125,16.6875 L13.125,7.125 L15.75,7.125 C16.8,7.125 17.625,7.95 17.625,9 L18,9 L17.625,6 L6.375,6 Z" id="Shape"></path>
      </symbol>


      <symbol id="icon--send" viewBox="0 0 24 24">
        <path d="M12.203925,12.3931102 L7.08873105,12.888192 L5.74242141,17.193252 C5.66205529,17.4477662 5.74108038,17.7256862 5.94333556,17.8998386 C6.14559073,18.0739909 6.43216432,18.1108706 6.67192298,17.9936017 L17.8826904,12.5653126 C18.1018899,12.4583888 18.2409436,12.2358444 18.2409436,11.9919568 C18.2409436,11.7480693 18.1018899,11.5255249 17.8826904,11.4186011 L6.67975036,5.98639827 C6.4399917,5.86912942 6.15341811,5.90600906 5.95116294,6.08016141 C5.74890776,6.25431376 5.66988267,6.53223383 5.75024879,6.78674804 L7.09655844,11.091808 L12.2019681,11.5868898 C12.4082295,11.6072877 12.5654069,11.7807756 12.5654069,11.9880432 C12.5654069,12.1953107 12.4082295,12.3687986 12.2019681,12.3891965 L12.203925,12.3931102 Z" id="Shape"></path>
      </symbol>


      <symbol id="icon--hint" viewBox="0 0 26 26">
        <path d="M 13 1.1875 C 6.476563 1.1875 1.1875 6.476563 1.1875 13 C 1.1875 19.523438 6.476563 24.8125 13 24.8125 C 19.523438 24.8125 24.8125 19.523438 24.8125 13 C 24.8125 6.476563 19.523438 1.1875 13 1.1875 Z M 15.460938 19.496094 C 14.851563 19.734375 14.367188 19.917969 14.003906 20.042969 C 13.640625 20.167969 13.222656 20.230469 12.742188 20.230469 C 12.007813 20.230469 11.433594 20.050781 11.023438 19.691406 C 10.617188 19.335938 10.414063 18.878906 10.414063 18.324219 C 10.414063 18.109375 10.429688 17.890625 10.460938 17.667969 C 10.488281 17.441406 10.539063 17.191406 10.605469 16.90625 L 11.367188 14.21875 C 11.433594 13.960938 11.492188 13.71875 11.539063 13.488281 C 11.585938 13.257813 11.605469 13.046875 11.605469 12.855469 C 11.605469 12.515625 11.535156 12.273438 11.394531 12.140625 C 11.25 12.003906 10.980469 11.9375 10.582031 11.9375 C 10.386719 11.9375 10.183594 11.96875 9.976563 12.027344 C 9.769531 12.089844 9.59375 12.148438 9.445313 12.203125 L 9.648438 11.375 C 10.144531 11.171875 10.621094 11 11.078125 10.855469 C 11.53125 10.710938 11.964844 10.636719 12.367188 10.636719 C 13.097656 10.636719 13.664063 10.816406 14.058594 11.167969 C 14.453125 11.519531 14.652344 11.980469 14.652344 12.542969 C 14.652344 12.660156 14.640625 12.867188 14.613281 13.160156 C 14.585938 13.453125 14.535156 13.722656 14.460938 13.972656 L 13.703125 16.652344 C 13.640625 16.867188 13.585938 17.113281 13.535156 17.386719 C 13.488281 17.660156 13.464844 17.871094 13.464844 18.011719 C 13.464844 18.367188 13.542969 18.613281 13.703125 18.742188 C 13.859375 18.871094 14.136719 18.933594 14.53125 18.933594 C 14.714844 18.933594 14.921875 18.902344 15.15625 18.839844 C 15.386719 18.773438 15.554688 18.71875 15.660156 18.667969 Z M 15.324219 8.617188 C 14.972656 8.945313 14.546875 9.109375 14.050781 9.109375 C 13.554688 9.109375 13.125 8.945313 12.769531 8.617188 C 12.414063 8.289063 12.238281 7.890625 12.238281 7.425781 C 12.238281 6.960938 12.417969 6.558594 12.769531 6.226563 C 13.125 5.894531 13.554688 5.730469 14.050781 5.730469 C 14.546875 5.730469 14.972656 5.894531 15.324219 6.226563 C 15.679688 6.558594 15.855469 6.960938 15.855469 7.425781 C 15.855469 7.890625 15.679688 8.289063 15.324219 8.617188 Z "/>
      </symbol>


      <symbol id="icon--return" viewBox="0 0 24 24">
          <path d="M9.21316127,6.98757495 L19.0018356,6.98757495 L19.0018356,16.0013967 L5.04801383,16.0013967 L6.39687877,14.2198697 L5.61159409,13.6111437 L3.3833533,16.4965838 L5.61159409,19.3792809 L6.39687877,18.7713418 L5.04801383,16.9932323 L19.2982577,16.9932323 C19.684857,16.9932323 19.9982577,16.6798316 19.9982577,16.2932323 L19.9982577,6.71080294 C19.9982577,6.32420361 19.684857,6.01080294 19.2982577,6.01080294 L9.21316127,6.01080294 L9.21316127,6.98757495 Z" />
      </symbol>
</svg>

